<svg width="22" height="17" viewBox="0 0 22 17" fill="none" xmlns="http://www.w3.org/2000/svg">
<g clip-path="url(#clip0_1_719)">
<path d="M5.00002 16.9163V8.20406L2.36388 5.73219L0 4.36047V15.3789C0 16.2296 0.672461 16.9163 1.50004 16.9163H5.00002Z" fill="#FF7829"/>
<path d="M17 16.9164H20.5C21.33 16.9164 22 16.227 22 15.3789V4.3606L19.3225 5.93173L17 8.20409V16.9164Z" fill="#FF7829"/>
<path d="M5 8.20399L4.6413 4.79985L5 1.54175L11 6.15412L17 1.54175L17.4012 4.62394L17 8.20399L11 12.8164L5 8.20399Z" fill="#FF7829"/>
<path d="M17 1.54178V8.20401L22 4.36043V2.31048C22 0.409206 19.8825 -0.674654 18.4001 0.465579L17 1.54178Z" fill="#FF7829"/>
<path d="M0 4.36047L2.2996 6.12829L5.00002 8.20406V1.54182L3.59992 0.465619C2.11492 -0.674702 0 0.409246 0 2.31043V4.36047Z" fill="#FF7829"/>
</g>
<defs>
<clipPath id="clip0_1_719">
<rect width="22" height="17" fill="white"/>
</clipPath>
</defs>
</svg>
