<svg width="55" height="55" viewBox="0 0 55 55" fill="none" xmlns="http://www.w3.org/2000/svg">
<circle cx="27.5" cy="27.5" r="27.5" fill="#C4C4C4"/>
<path d="M55 27.5C55 31.4606 54.1445 35.3744 52.492 38.9738C50.8396 42.5732 48.4291 45.7732 45.4256 48.3548C42.422 50.9365 38.8963 52.8389 35.0895 53.932C31.2828 55.025 27.2848 55.2829 23.3692 54.688C19.4535 54.0931 15.7126 52.6594 12.4023 50.485C9.09197 48.3106 6.29038 45.4468 4.18917 42.0896C2.08797 38.7323 0.736731 34.9608 0.227897 31.033C-0.280936 27.1053 0.0646416 23.114 1.24099 19.3321L27.5 27.5H55Z" fill="#FF7829"/>
<circle cx="27.5" cy="27.5" r="23.5" fill="#FAF1E3"/>
<path d="M27.6154 18C18.2983 18 11 21.9531 11 27C11 32.0469 18.2983 36 27.6154 36C36.9325 36 44.2308 32.0469 44.2308 27C44.2308 21.9531 36.9325 18 27.6154 18ZM25.8902 20.7692H27.704L27.128 23.5385H28.748C29.7754 23.5385 30.4649 23.6825 30.8582 24.0411C31.2417 24.3955 31.358 24.9771 31.2043 25.7691L30.4843 29.0769H28.64L29.3032 26.0183C29.3826 25.5965 29.3517 25.308 29.2105 25.1529C29.0706 24.9992 28.7618 24.9231 28.2994 24.9231H26.8469L25.9705 29.0769H24.1538L25.8902 20.7692ZM17.9231 23.5385H21.6145C23.3743 23.5385 24.4405 24.7182 24.0237 26.478C23.5391 28.5231 22.2431 29.0769 19.856 29.0769H18.7151L18.3537 31.1538H16.5191L17.9231 23.5385ZM32.4615 23.5385H36.1529C37.9128 23.5385 38.9789 24.7182 38.5622 26.478C38.0775 28.5231 36.7802 29.0769 34.3945 29.0769H33.2535L32.8922 31.1538H31.0575L32.4615 23.5385ZM19.4946 24.9231L18.9726 27.6923H20.1565C21.1811 27.6923 22.1337 27.576 22.2929 26.0488C22.3525 25.4562 22.106 24.9231 20.9222 24.9231H19.4946ZM34.0331 24.9231L33.5111 27.6923H34.6949C35.7195 27.6923 36.6722 27.576 36.8314 26.0488C36.8909 25.4562 36.6458 24.9231 35.4606 24.9231H34.0331Z" fill="#FF7829"/>
</svg>
