<svg width="55" height="55" viewBox="0 0 55 55" fill="none" xmlns="http://www.w3.org/2000/svg">
<circle cx="27.5" cy="27.5" r="27.5" fill="#C4C4C4"/>
<path d="M55 27.5C55 34.299 52.4813 40.857 47.9302 45.9081C43.379 50.9592 37.118 54.1453 30.3558 54.8513C23.5935 55.5574 16.8094 53.7333 11.313 49.7313C5.81663 45.7293 1.9976 39.8331 0.593126 33.1807C-0.811348 26.5283 0.298309 19.5915 3.7079 13.7092C7.1175 7.82691 12.5853 3.41623 19.0558 1.32852C25.5264 -0.759185 32.541 -0.375893 38.7455 2.40441C44.9501 5.18472 49.9047 10.1649 52.6531 16.3837L27.5 27.5H55Z" fill="#FF7829"/>
<circle cx="27.5" cy="27.5" r="23.5" fill="#FAF1E3"/>
<path d="M13 11L15.6392 39.8L27.4825 43L39.3567 39.796L42 11H13ZM36.2551 20.42H22.3645L22.6954 24.038H35.9262L34.9293 34.882L27.4825 36.89L20.046 34.882L19.5383 29.334H23.1826L23.4416 32.154L27.4846 33.214L27.4928 33.212L31.5379 32.15L31.9572 27.57H19.3759L18.3975 16.888H36.5819L36.2551 20.42Z" fill="#FF7829"/>
</svg>
