<svg width="55" height="55" viewBox="0 0 55 55" fill="none" xmlns="http://www.w3.org/2000/svg">
<circle cx="27.5" cy="27.5" r="27.5" fill="#C4C4C4"/>
<path d="M29.3397 0.0616057C24.4828 -0.26404 19.6266 0.70533 15.2669 2.8707C10.9073 5.03607 7.20058 8.31983 4.52536 12.3866C1.85013 16.4533 0.3023 21.1573 0.0399645 26.018C-0.222371 30.8787 0.810191 35.7219 3.03218 40.0529C5.25417 44.384 8.58595 48.0476 12.6872 50.6696C16.7884 53.2916 21.5122 54.778 26.3759 54.977C31.2396 55.176 36.0689 54.0804 40.3707 51.8022C44.6724 49.524 48.2923 46.1447 50.8606 42.0097L27.5 27.5L29.3397 0.0616057Z" fill="#FF7829"/>
<circle cx="27.5" cy="27.5" r="23.5" fill="#FAF1E3"/>
<path d="M17.4091 34C16.4621 34 15.6576 33.6844 14.9955 33.0532C14.3333 32.4219 14.0015 31.6542 14 30.75V28.5833H17.4091V30.75H20.8182V21H24.2273V30.75C24.2273 31.6528 23.8962 32.4205 23.2341 33.0532C22.572 33.6858 21.7667 34.0014 20.8182 34H17.4091ZM29.9091 34C29.2651 34 28.7258 33.792 28.2909 33.376C27.8561 32.96 27.6379 32.4458 27.6364 31.8333V29.6667H31.0454V30.75H35.5909V28.5833H29.9091C29.2651 28.5833 28.7258 28.3753 28.2909 27.9593C27.8561 27.5433 27.6379 27.0291 27.6364 26.4167V23.1667C27.6364 22.5528 27.8545 22.0386 28.2909 21.624C28.7273 21.2094 29.2667 21.0014 29.9091 21H36.7273C37.3712 21 37.9114 21.208 38.3477 21.624C38.7841 22.04 39.0015 22.5542 39 23.1667V25.3333H35.5909V24.25H31.0454V26.4167H36.7273C37.3712 26.4167 37.9114 26.6247 38.3477 27.0407C38.7841 27.4567 39.0015 27.9709 39 28.5833V31.8333C39 32.4472 38.7818 32.9622 38.3454 33.3782C37.9091 33.7942 37.3697 34.0014 36.7273 34H29.9091Z" fill="#FF7829"/>
</svg>
