<svg width="55" height="55" viewBox="0 0 55 55" fill="none" xmlns="http://www.w3.org/2000/svg">
<circle cx="27.5" cy="27.5001" r="27.5" fill="#C4C4C4"/>
<path d="M52.8959 16.9504C55.5231 23.2746 55.696 30.3516 53.381 36.7966C51.0659 43.2416 46.4294 48.591 40.3785 51.7981C34.3277 55.0052 27.2979 55.8392 20.6646 54.137C14.0313 52.4348 8.27177 48.3189 4.51286 42.5945C0.753953 36.8701 -0.733849 29.9491 0.340539 23.1857C1.41493 16.4223 4.97419 10.3031 10.322 6.0253C15.6698 1.74752 22.4212 -0.381013 29.2555 0.0561498C36.0897 0.493312 42.515 3.46471 47.2742 8.389L27.5 27.5001L52.8959 16.9504Z" fill="#FF7829"/>
<circle cx="27.5" cy="27.5001" r="23.5" fill="#FAF1E3"/>
<path fill-rule="evenodd" clip-rule="evenodd" d="M23.7796 24.7481C23.2836 24.7481 22.7925 24.8458 22.3343 25.0356C21.8761 25.2254 21.4598 25.5036 21.1091 25.8542C20.7584 26.2049 20.4802 26.6213 20.2904 27.0795C20.1006 27.5377 20.0029 28.0288 20.0029 28.5248C20.0029 29.0207 20.1006 29.5118 20.2904 29.97C20.4802 30.4283 20.7584 30.8446 21.1091 31.1953C21.4598 31.546 21.8761 31.8242 22.3343 32.014C22.7925 32.2038 23.2836 32.3015 23.7796 32.3015H27.5563V24.7481H23.7796ZM27.5563 22.5549H23.7796C22.7778 22.5549 21.817 22.1569 21.1086 21.4485C20.4002 20.7401 20.0022 19.7793 20.0022 18.7775C20.0022 17.7756 20.4002 16.8148 21.1086 16.1064C21.817 15.398 22.7778 15.0001 23.7796 15.0001H27.5563V22.5549ZM29.7495 15.0001V22.5549H33.5262C34.5151 22.5354 35.457 22.1289 36.1495 21.4226C36.8421 20.7163 37.23 19.7666 37.23 18.7775C37.23 17.7883 36.8421 16.8386 36.1495 16.1323C35.457 15.426 34.5151 15.0195 33.5262 15.0001H29.7495ZM33.5262 24.7466C32.5348 24.7465 31.5832 25.1362 30.8766 25.8315C30.1701 26.5269 29.7652 27.4721 29.7495 28.4634V28.5847C29.7616 29.3289 29.9933 30.053 30.4156 30.6659C30.8379 31.2789 31.4319 31.7534 32.1229 32.0298C32.814 32.3063 33.5714 32.3724 34.2999 32.2198C35.0284 32.0672 35.6956 31.7027 36.2176 31.1722C36.7397 30.6417 37.0933 29.9687 37.2342 29.2378C37.375 28.5069 37.2967 27.7507 37.0091 27.0642C36.7215 26.3777 36.2375 25.7914 35.6179 25.3791C34.9982 24.9668 34.2705 24.7467 33.5262 24.7466ZM23.7796 34.4946C23.0323 34.4944 22.3017 34.7157 21.6802 35.1307C21.0587 35.5456 20.5742 36.1356 20.288 36.8259C20.0018 37.5163 19.9268 38.276 20.0724 39.009C20.218 39.742 20.5778 40.4153 21.1061 40.9438C21.6344 41.4724 22.3076 41.8323 23.0405 41.9782C23.7735 42.1241 24.5332 42.0494 25.2236 41.7635C25.9141 41.4776 26.5042 40.9933 26.9195 40.372C27.3347 39.7506 27.5563 39.0201 27.5563 38.2728V34.4946H23.7796Z" fill="#FF7829"/>
</svg>
