<svg width="55" height="55" viewBox="0 0 55 55" fill="none" xmlns="http://www.w3.org/2000/svg">
<circle cx="27.5" cy="27.5001" r="27.5" fill="#C4C4C4"/>
<path d="M4.71152 42.8928C1.19208 37.6823 -0.435533 31.4232 0.099884 25.1583C0.635302 18.8935 3.30142 13.0013 7.65396 8.46366C12.0065 3.926 17.7826 1.01692 24.0197 0.221176C30.2568 -0.574568 36.5783 0.791086 41.9307 4.09057C47.2831 7.39005 51.3432 12.4241 53.4345 18.3538C55.5257 24.2836 55.5217 30.7509 53.4233 36.678C51.3248 42.6052 47.2585 47.6343 41.9021 50.9272C36.5456 54.2201 30.2225 55.578 23.9863 54.7747L27.5 27.5001L4.71152 42.8928Z" fill="#FF7829"/>
<circle cx="27.5" cy="27.5001" r="23.5" fill="#FAF1E3"/>
<path d="M27.6852 23.8997C29.2031 23.8997 30.4411 25.1376 30.4411 26.6851C30.4411 28.1588 29.2031 29.4115 27.6852 29.4115C26.1672 29.4115 24.9292 28.1588 24.9292 26.6851C24.9292 25.1376 26.1672 23.8997 27.6852 23.8997ZM20.8617 38.4751C21.7901 39.0351 23.8239 38.1803 26.1672 35.9697C25.4008 35.1002 24.6492 34.157 23.9418 33.1696C22.7543 33.0551 21.5736 32.878 20.4048 32.639C19.6532 35.7929 19.9332 37.9593 20.8617 38.4751ZM21.908 30.0157L21.4806 29.2641C21.3185 29.6915 21.1564 30.1189 21.0533 30.5316C21.4512 30.62 21.8933 30.6937 22.3502 30.7674L21.908 30.0157ZM31.5464 28.8957L32.7401 26.6851L31.5464 24.4744C31.1043 23.6933 30.6327 23.0007 30.2053 22.308C29.4094 22.2638 28.5694 22.2638 27.6852 22.2638C26.8009 22.2638 25.9609 22.2638 25.165 22.308C24.7376 23.0007 24.266 23.6933 23.8239 24.4744L22.6302 26.6851L23.8239 28.8957C24.266 29.6768 24.7376 30.3694 25.165 31.0621C25.9609 31.1063 26.8009 31.1063 27.6852 31.1063C28.5694 31.1063 29.4094 31.1063 30.2053 31.0621C30.6327 30.3694 31.1043 29.6768 31.5464 28.8957ZM27.6852 18.9921C27.4051 19.3163 27.1104 19.6552 26.8156 20.0532H28.5547C28.2599 19.6552 27.9652 19.3163 27.6852 18.9921ZM27.6852 34.3781C27.9652 34.0538 28.2599 33.7149 28.5547 33.3169H26.8156C27.1104 33.7149 27.4051 34.0538 27.6852 34.3781ZM34.4939 14.895C33.5802 14.335 31.5464 15.1898 29.2031 17.4004C29.9695 18.2699 30.7211 19.2131 31.4285 20.2005C32.637 20.3184 33.8307 20.4953 34.9655 20.7311C35.7171 17.5772 35.4371 15.4108 34.4939 14.895ZM33.4623 23.3544L33.8897 24.106C34.0518 23.6786 34.2139 23.2512 34.317 22.8386C33.9191 22.7501 33.477 22.6764 33.0201 22.6028L33.4623 23.3544ZM35.5992 12.9644C37.7656 14.2023 38.0014 17.4593 37.0877 21.2616C40.831 22.367 43.528 24.1944 43.528 26.6851C43.528 29.1757 40.831 31.0032 37.0877 32.1085C38.0014 35.9108 37.7656 39.1678 35.5992 40.4057C33.4475 41.6437 30.5148 40.2289 27.6852 37.5319C24.8555 40.2289 21.9228 41.6437 19.7563 40.4057C17.6047 39.1678 17.3689 35.9108 18.2826 32.1085C14.5393 31.0032 11.8423 29.1757 11.8423 26.6851C11.8423 24.1944 14.5393 22.367 18.2826 21.2616C17.3689 17.4593 17.6047 14.2023 19.7563 12.9644C21.9228 11.7264 24.8555 13.1412 27.6852 15.8382C30.5148 13.1412 33.4475 11.7264 35.5992 12.9644ZM35.1718 26.6851C35.6729 27.7904 36.115 28.8957 36.4835 30.0157C39.5784 29.0873 41.3174 27.7609 41.3174 26.6851C41.3174 25.6092 39.5784 24.2828 36.4835 23.3544C36.115 24.4744 35.6729 25.5797 35.1718 26.6851ZM20.1985 26.6851C19.6974 25.5797 19.2553 24.4744 18.8868 23.3544C15.7919 24.2828 14.0529 25.6092 14.0529 26.6851C14.0529 27.7609 15.7919 29.0873 18.8868 30.0157C19.2553 28.8957 19.6974 27.7904 20.1985 26.6851ZM33.4623 30.0157L33.0201 30.7674C33.477 30.6937 33.9191 30.62 34.317 30.5316C34.2139 30.1189 34.0518 29.6915 33.8897 29.2641L33.4623 30.0157ZM29.2031 35.9697C31.5464 38.1803 33.5802 39.0351 34.4939 38.4751C35.4371 37.9593 35.7171 35.7929 34.9655 32.639C33.8307 32.8748 32.637 33.0517 31.4285 33.1696C30.7211 34.157 29.9695 35.1002 29.2031 35.9697ZM21.908 23.3544L22.3502 22.6028C21.8933 22.6764 21.4512 22.7501 21.0533 22.8386C21.1564 23.2512 21.3185 23.6786 21.4806 24.106L21.908 23.3544ZM26.1672 17.4004C23.8239 15.1898 21.7901 14.335 20.8617 14.895C19.9332 15.4108 19.6532 17.5772 20.4048 20.7311C21.5736 20.4921 22.7543 20.315 23.9418 20.2005C24.6492 19.2131 25.4008 18.2699 26.1672 17.4004Z" fill="#FF7829"/>
</svg>
