<svg width="55" height="55" viewBox="0 0 55 55" fill="none" xmlns="http://www.w3.org/2000/svg">
<circle cx="27.5" cy="27.5" r="27.5" fill="#C4C4C4"/>
<path d="M27.5 0C23.4378 -4.84414e-08 19.426 0.899954 15.7531 2.63518C12.0801 4.3704 8.83719 6.89779 6.25742 10.0357C3.67764 13.1736 1.82508 16.844 0.832894 20.7832C-0.159292 24.7224 -0.266458 28.8325 0.519099 32.818C1.30466 36.8035 2.96342 40.5655 5.37617 43.8336C7.78892 47.1017 10.8957 49.7946 14.4733 51.7189C18.0508 53.6431 22.0102 54.7509 26.0669 54.9626C30.1236 55.1743 34.1768 54.4847 37.9352 52.9432L27.5 27.5V0Z" fill="#FF7829"/>
<circle cx="27.5" cy="27.5" r="23.5" fill="#FAF1E3"/>
<path d="M15.5744 27.4999H39.7C39.8523 27.4999 39.9984 27.4406 40.1062 27.3352C40.2139 27.2297 40.2744 27.0866 40.2744 26.9374V22.9999C40.2745 22.8522 40.2449 22.7058 40.1873 22.5692C40.1296 22.4327 40.045 22.3086 39.9384 22.204L31.8965 14.3291C31.7897 14.2246 31.663 14.1418 31.5235 14.0853C31.3841 14.0289 31.2346 13.9999 31.0837 14H17.2977C16.6883 14 16.1039 14.2371 15.673 14.659C15.2421 15.081 15 15.6533 15 16.25V26.9374C15 27.0866 15.0605 27.2297 15.1682 27.3352C15.276 27.4406 15.4221 27.4999 15.5744 27.4999ZM31.0837 16.8125L37.4023 22.9999H31.0837V16.8125ZM41.9977 39.9493C41.972 40.2385 41.8356 40.5075 41.6158 40.7023C41.3961 40.8971 41.1093 41.0034 40.8129 40.9998H36.8279C36.5232 40.9998 36.231 40.8813 36.0155 40.6703C35.8001 40.4593 35.6791 40.1732 35.6791 39.8748V32.0378C35.6754 31.7476 35.7839 31.4667 35.9829 31.2516C36.1818 31.0364 36.4565 30.9029 36.7518 30.8777C36.9089 30.8675 37.0665 30.889 37.2148 30.9409C37.3631 30.9929 37.4989 31.0741 37.6138 31.1796C37.7287 31.2851 37.8202 31.4126 37.8826 31.5542C37.945 31.6958 37.9771 31.8485 37.9767 32.0027V38.7526H40.8488C41.0061 38.7523 41.1617 38.7836 41.3061 38.8446C41.4504 38.9055 41.5805 38.9949 41.6882 39.1071C41.7959 39.2193 41.8789 39.3519 41.9322 39.4968C41.9854 39.6416 42.0077 39.7957 41.9977 39.9493ZM22.4416 38.2309C22.3968 38.6612 22.2552 39.0764 22.0271 39.4467C21.7989 39.817 21.4897 40.1332 21.1219 40.3726C20.3766 40.8592 19.4517 40.9998 18.6102 40.9998C17.8763 40.9961 17.1458 40.9016 16.436 40.7186C16.1461 40.6354 15.9012 40.4437 15.7546 40.185C15.6079 39.9264 15.5712 39.6215 15.6524 39.3365C15.7336 39.0516 15.9262 38.8094 16.1884 38.6624C16.4507 38.5155 16.7615 38.4757 17.0535 38.5515C17.6825 38.7203 19.2004 38.9312 19.861 38.5009C19.9888 38.4179 20.1238 38.2872 20.1683 37.9483C20.2186 37.5728 20.0664 37.3717 18.3331 36.8809C16.9904 36.5012 14.7429 35.8642 15.0302 33.6311C15.0749 33.2093 15.2138 32.8023 15.4372 32.4389C15.6605 32.0756 15.9628 31.7649 16.3226 31.5288C18.0229 30.4038 20.7341 31.0633 21.0371 31.1407C21.1831 31.1783 21.3201 31.2438 21.4402 31.3333C21.5603 31.4228 21.6613 31.5346 21.7373 31.6623C21.8133 31.79 21.8629 31.9311 21.8832 32.0776C21.9035 32.2241 21.8942 32.373 21.8557 32.516C21.8172 32.6589 21.7504 32.793 21.659 32.9106C21.5676 33.0283 21.4534 33.1271 21.323 33.2016C21.1926 33.276 21.0485 33.3246 20.8989 33.3444C20.7493 33.3643 20.5972 33.3552 20.4512 33.3175C19.8064 33.153 18.2656 32.9575 17.605 33.3963C17.5184 33.4535 17.4471 33.5302 17.3971 33.62C17.3471 33.7098 17.3199 33.8101 17.3178 33.9124C17.3005 34.0389 17.2977 34.0642 17.4786 34.1795C17.8103 34.3891 18.4034 34.5564 18.9793 34.7195C20.3852 35.1175 22.7633 35.7967 22.4416 38.2309ZM32.6375 38.6851C33.1275 37.849 33.384 36.9013 33.3814 35.9373C33.3814 33.146 31.3207 30.8749 28.786 30.8749C26.2514 30.8749 24.1907 33.146 24.1907 35.9373C24.1907 38.7287 26.2514 40.9998 28.786 40.9998C29.5975 40.9968 30.3907 40.7633 31.0694 40.3276L31.4197 40.6707C31.5314 40.78 31.6649 40.8656 31.8119 40.9222C31.9589 40.9787 32.1162 41.0049 32.274 40.9992C32.4318 40.9936 32.5867 40.9561 32.7291 40.8892C32.8714 40.8222 32.9982 40.7273 33.1014 40.6103C33.2898 40.3872 33.3855 40.1028 33.3693 39.8137C33.353 39.5247 33.2261 39.2522 33.0138 39.0508L32.6375 38.6851ZM28.786 38.7498C27.5194 38.7498 26.4884 37.4842 26.4884 35.9373C26.4884 34.3905 27.5194 33.1249 28.786 33.1249C30.0526 33.1249 31.0837 34.3905 31.0837 35.9373C31.0839 36.2959 31.0267 36.6522 30.9143 36.9934L30.7807 36.8626C30.5687 36.6487 30.2804 36.5232 29.9761 36.5125C29.6719 36.5018 29.3751 36.6065 29.1479 36.805C29.0357 36.9082 28.9458 37.0324 28.8836 37.1702C28.8213 37.3081 28.788 37.4568 28.7856 37.6075C28.7832 37.7582 28.8117 37.9079 28.8695 38.0476C28.9273 38.1873 29.0132 38.3142 29.1221 38.4208L29.3633 38.6556C29.1772 38.7165 28.9823 38.7483 28.786 38.7498Z" fill="#FF7829"/>
</svg>
