<svg width="55" height="55" viewBox="0 0 55 55" fill="none" xmlns="http://www.w3.org/2000/svg">
<circle cx="27.5" cy="27.5001" r="27.5" fill="#C4C4C4"/>
<path d="M9.34446 48.155C14.0796 52.3171 20.101 54.7259 26.4003 54.9781C32.6995 55.2302 38.8942 53.3103 43.9468 49.5399C48.9994 45.7695 52.6031 40.3776 54.1544 34.2671C55.7057 28.1566 55.1105 21.6986 52.4683 15.9747C49.8261 10.2508 45.2975 5.60843 39.6408 2.82516C33.9841 0.0419026 27.5429 -0.713282 21.3959 0.686083C15.2488 2.08545 9.76918 5.55438 5.87469 10.5119C1.98019 15.4695 -0.0926916 21.6147 0.00318002 27.9183L27.5 27.5001L9.34446 48.155Z" fill="#FF7829"/>
<circle cx="27.5" cy="27.5001" r="23.5" fill="#FAF1E3"/>
<path d="M40.5066 24.0289C40.0255 22.1996 39.1475 20.7619 37.306 20.7619H34.8528V23.6374C34.8528 25.8581 32.9228 27.7306 30.8624 27.7306H24.3265C22.5297 27.7306 21.1258 29.2561 21.1258 31.0408V37.1833C21.1258 38.8802 22.6616 39.9265 24.3265 40.4921C26.3448 41.1023 28.3168 41.2333 30.8162 40.4921C32.439 40.0129 34.0183 39.0989 34.0183 37.1819V34.7425H27.572V33.9595H37.306C39.1475 33.9595 39.8937 32.6527 40.5066 30.6925C41.1645 28.5581 41.1645 26.5979 40.5066 24.0289ZM31.2104 36.2234C31.8695 36.2234 32.439 36.7904 32.439 37.4438C32.439 38.0972 31.8682 38.6629 31.2117 38.6629C30.5539 38.7061 29.9831 38.0959 29.9831 37.4438C29.9396 36.7904 30.5091 36.2234 31.2117 36.2234M24.022 26.903H30.5118C32.3085 26.903 33.7125 25.4221 33.7125 23.5928V17.5381C33.7125 15.8398 32.2215 14.533 30.5104 14.2279C28.363 13.9241 25.9941 13.9241 24.022 14.2279C21.259 14.7071 20.82 15.7088 20.82 17.5381V19.9775H27.3097V20.7605H18.4511C16.6095 20.7605 14.9432 21.9377 14.4607 24.0275C13.8464 26.467 13.8464 27.9911 14.4607 30.5183C14.9432 32.4353 15.9965 33.7853 17.9251 33.7853H20.0304V30.8666C19.9855 28.7323 21.8719 26.903 24.0207 26.903M23.6265 18.3224C23.303 18.3159 22.9945 18.1854 22.7655 17.9582C22.5366 17.731 22.4049 17.4248 22.3979 17.1034C22.3979 16.45 22.9687 15.883 23.6252 15.883C24.2816 15.883 24.8538 16.45 24.8538 17.1034C24.8538 17.7568 24.2844 18.3224 23.6265 18.3224Z" fill="#FF7829"/>
</svg>
