<svg width="55" height="55" viewBox="0 0 55 55" fill="none" xmlns="http://www.w3.org/2000/svg">
<circle cx="27.5" cy="27.5001" r="27.5" fill="#C4C4C4"/>
<path d="M8.05456 8.05463C12.5534 3.55582 18.4729 0.756093 24.8045 0.132481C31.1362 -0.491131 37.4881 1.09996 42.7782 4.63465C48.0682 8.16933 51.969 13.4289 53.8159 19.5172C55.6627 25.6055 55.3414 32.1459 52.9067 38.0239C50.472 43.9018 46.0744 48.7537 40.4634 51.7529C34.8524 54.752 28.375 55.7129 22.135 54.4717C15.895 53.2304 10.2784 49.864 6.24221 44.9459C2.20603 40.0278 -1.51739e-07 33.8623 0 27.5001H27.5L8.05456 8.05463Z" fill="#FF7829"/>
<circle cx="27.5" cy="27.5001" r="23.5" fill="#FAF1E3"/>
<path d="M15.2114 24.3754V29.46C15.2114 31.2114 15.0871 32.0517 14.7144 32.778C14.369 33.4764 13.9134 33.9175 12.9745 34.4019L11 33.4335C11.9389 32.9776 12.3943 32.5791 12.6844 31.9665C12.9881 31.3399 13.0853 30.6136 13.0853 28.7049V24.3754H15.2114ZM13.085 21.0001H15.2114V23.2503H13.085V21.0001ZM16.496 24.8739C17.4346 24.4184 18.3323 24.2191 19.3128 24.2191C20.4033 24.2191 21.1214 24.518 21.4391 25.102C21.6184 25.4294 21.6737 25.8568 21.6737 26.7683V31.2258C20.7211 31.3684 19.52 31.468 18.636 31.468C16.855 31.468 16.054 30.827 16.054 29.4029C16.054 27.8646 17.1172 27.1527 19.7268 26.9246V26.4405C19.7268 26.0417 19.5336 25.8994 18.9951 25.8994C18.2083 25.8994 17.3244 26.1272 16.4957 26.569L16.496 24.8739ZM19.8234 28.3634C18.4152 28.5056 17.9595 28.7337 17.9595 29.3033C17.9595 29.7304 18.222 29.9299 18.8019 29.9299C19.1193 29.9299 19.4094 29.9017 19.8234 29.8303V28.3634ZM22.7098 24.7173C23.9662 24.3758 25.0017 24.2191 26.0512 24.2191C27.142 24.2191 27.9291 24.4751 28.3987 24.9739C28.8407 25.4439 28.9786 25.9561 28.9786 27.0531V31.354H26.8522V27.1389C26.8522 26.2986 26.5758 25.9853 25.8164 25.9853C25.5266 25.9853 25.2645 26.0135 24.8361 26.1419V31.3543H22.7098V24.7173ZM29.8048 32.5502C30.5505 32.9491 31.296 33.1343 32.083 33.1343C33.4773 33.1343 34.0712 32.5502 34.0712 31.1544V31.1118C33.6571 31.3255 33.2428 31.411 32.6906 31.411C30.8264 31.411 29.639 30.1433 29.639 28.1353C29.639 25.6428 31.3926 24.2329 34.4992 24.2329C35.4105 24.2329 36.2528 24.3325 37.2747 24.5462L36.5465 26.1285C35.9803 26.0144 36.501 26.1128 36.0733 26.0702V26.2983L36.1006 27.2238L36.1146 28.4201C36.1286 28.7193 36.1286 29.0185 36.1422 29.3174V29.9158C36.1422 31.7958 35.9904 32.6784 35.5347 33.4046C34.8719 34.4731 33.7261 35.0001 32.0967 35.0001C31.268 35.0001 30.5505 34.8716 29.8045 34.5727V32.5499L29.8048 32.5502ZM34.0302 25.9987H33.809C33.395 25.9846 32.9117 26.0984 32.58 26.3121C32.0694 26.6113 31.8069 27.1524 31.8069 27.9216C31.8069 29.0182 32.3315 29.6448 33.2705 29.6448C33.5605 29.6448 33.7954 29.5878 34.0712 29.5026V28.7475C34.0712 28.4915 34.0575 28.2064 34.0575 27.9075L34.0438 26.8964L34.0299 26.1698V25.9991L34.0302 25.9987ZM40.5757 24.1906C42.702 24.1906 44 25.572 44 27.8078C44 30.101 42.647 31.5395 40.4927 31.5395C38.3664 31.5395 37.0547 30.1577 37.0547 27.9363C37.0547 25.6287 38.408 24.1906 40.5757 24.1906ZM40.5341 29.7733C41.3487 29.7733 41.8323 29.0752 41.8323 27.8649C41.8323 26.6686 41.3627 25.9564 40.5483 25.9564C39.7057 25.9564 39.2224 26.6545 39.2224 27.8646C39.2224 29.0755 39.7057 29.7733 40.5341 29.7733Z" fill="#FF7829"/>
</svg>
