<svg width="198" height="208" viewBox="0 0 198 208" fill="none" xmlns="http://www.w3.org/2000/svg">
<path d="M30.3947 114.043C35.8217 126.538 60.9813 144.362 62.4108 158.34C61.8137 146.331 62.7289 121.826 71.1674 119.879C79.6058 117.932 80.0926 108.249 79.2812 103.651C84.9609 102.84 93.8862 90.6691 95.509 84.9894C96.8072 80.4456 100.369 72.4787 101.988 69.0632C108.483 66.9567 125.53 63.2981 141.758 65.5161C157.986 67.7341 160.939 82.2597 160.387 89.2452C158.645 103.724 177.929 97.1776 180.113 95.7263C182.297 94.275 183.989 92.1947 184.965 89.7607C185.696 87.8144 185.989 85.7309 185.825 83.6583C185.66 81.5858 189.98 74.6362 188.95 72.8298C195.674 73.6239 198.401 69.0177 197.766 62.7436C185.825 61.7456 195.947 50.945 193.009 46.3122C193.009 46.3122 188.687 27.7922 185.601 24.7055C185.045 18.5903 162 15.5363 151.411 20.5397C152.138 17.3404 151.621 13.9841 149.964 11.1522C148.307 8.32028 145.635 6.22487 142.489 5.29126C135.077 2.90869 128.591 2.29983 123.297 8.20331C119.326 -1.40639 107.122 -2.06823 99.4708 3.59699C95.0234 6.90612 75.4538 14.8271 70.1592 16.6802C59.0472 30.2615 72.8677 31.5606 69.2144 32.593C60.9019 34.8961 37.4851 44.6022 41.456 69.0632C33.7364 56.8069 24.4383 75.3925 23.6176 81.8519C22.2146 92.8647 25.1001 102.024 30.3947 114.043Z" fill="white"/>
<path d="M95.3159 71.5242C108.412 64.8093 121.623 62.682 132.954 63.4919C144.321 64.3046 153.726 68.0664 159.232 73.0281C161.236 81.6659 162.587 87.364 160.938 97.1316L160.937 97.1384C160.321 100.998 160.257 104.927 160.748 108.804C161.496 116.432 159.414 124.386 156.541 132.388C155.103 136.39 153.482 140.369 151.93 144.319C150.386 148.249 148.913 152.144 147.792 155.94C146.824 158.828 146.074 161.497 145.356 163.776C144.628 166.086 143.924 168.034 143.023 169.635C142.13 171.221 141.053 172.446 139.586 173.329C138.113 174.215 136.187 174.789 133.542 174.975C128.076 175.209 122.599 175.095 117.147 174.633L116.412 174.571L116.28 175.296L114.93 182.709L114.874 183.018L115.041 183.284C116.821 186.129 118.201 188.687 119.084 190.991C119.969 193.296 120.338 195.3 120.153 197.054C119.794 200.454 117.289 203.288 111.153 205.602C108.167 206.728 103.869 207.268 98.9614 207.106C94.0667 206.944 88.6232 206.086 83.3726 204.465C72.8804 201.225 63.3759 195.015 60.2944 185.458L63.9878 140.007L64.145 138.075L62.6587 139.318C62.6572 139.319 62.6543 139.322 62.6499 139.326C62.6406 139.333 62.625 139.346 62.603 139.363C62.5585 139.397 62.4883 139.45 62.394 139.516C62.2051 139.649 61.9189 139.837 61.5454 140.046C60.7971 140.463 59.7035 140.96 58.3354 141.267C55.6247 141.876 51.7678 141.758 47.2788 138.664C42.3684 135.276 39.1151 129.535 37.9644 123.292C36.8139 117.05 37.7828 110.4 41.1948 105.231C43.534 101.712 47.3884 100.422 51.3013 100.717C55.2371 101.013 59.0962 102.912 61.2798 105.589C63.5495 108.371 64.6381 111.212 65.8579 113.614C67.0498 115.961 68.4306 117.991 71.3335 118.273H71.3354C73.2527 118.455 74.7625 117.832 75.894 116.705C76.9951 115.608 77.699 114.076 78.1528 112.478C78.9852 109.547 79.0456 106.13 78.9468 103.945C90.4017 98.6216 97.0545 86.8456 95.3159 71.5242Z" stroke="white" stroke-width="1.62277"/>
<path d="M60.2826 30.879C66.3869 31.1127 72.6292 31.4963 67.521 36.6086C71.8771 36.3259 80.3552 34.0433 79.4195 27.175C78.4837 20.3067 60.2829 20.3843 60.2826 30.879Z" fill="white"/>
<path d="M33.2489 57.1942C33.5764 61.1624 37.2835 61.3942 39.0961 61.0141L49.8449 58.1292L40.0723 113.793C39.6695 113.878 36.7083 113.994 28.0858 113.784C19.4633 113.574 20.0944 100.742 21.4878 94.3526C18.8683 93.8927 14.5233 96.2336 12.6783 97.4616C13.7209 92.4071 17.3067 82.2357 23.3097 81.986C29.3127 81.7364 33.7433 75.5929 35.2083 72.5524C26.5935 70.5744 32.8394 52.234 33.2489 57.1942Z" fill="white"/>
<path d="M148.977 64.9215C155.492 72.4083 161.982 80.2252 150.247 79.8653C155.428 84.7078 167.562 92.2054 174.652 83.4564C181.743 74.7075 161.402 53.2463 148.977 64.9215Z" fill="white"/>
<path d="M110.903 62.3631C104.515 66.4435 94.8718 74.7519 103.423 80.2754C98.5931 82.4303 88.1471 83.7073 84.9996 71.5763C81.852 59.4454 104.564 44.6909 110.903 62.3631Z" fill="white"/>
<path d="M172.825 39.1961C164.33 46.2056 155.469 53.1788 156.209 40.17C150.686 45.7769 142.015 59.0208 151.515 67.1413C161.015 75.2619 185.416 53.32 172.825 39.1961Z" fill="white"/>
<path d="M91.767 107.446L59.9224 111.186C61.865 112.599 63.3772 114.524 64.2904 116.746L92.3843 111.15L91.767 107.446Z" fill="white"/>
<path d="M125.676 111.613H141.372" stroke="white" stroke-width="1.74394"/>
<path d="M115.382 111.059C115.325 112.007 114.99 112.917 114.42 113.677C113.849 114.436 113.068 115.011 112.173 115.33C111.279 115.649 110.31 115.698 109.388 115.471C108.465 115.243 107.63 114.75 106.986 114.052C106.342 113.354 105.917 112.482 105.765 111.544C105.612 110.607 105.739 109.645 106.129 108.779C106.519 107.913 107.154 107.18 107.957 106.672C108.76 106.165 109.694 105.904 110.644 105.923C111.293 105.947 111.931 106.099 112.521 106.37C113.111 106.642 113.642 107.027 114.082 107.505C114.522 107.982 114.864 108.542 115.087 109.152C115.311 109.762 115.411 110.41 115.382 111.059Z" fill="white"/>
<path d="M98.6499 93.7732L125.084 88.6942C125.467 87.0001 124.333 84.4232 122.242 83.6876C120.152 82.9519 117.084 82.893 113.677 83.523C112.015 83.8533 110.327 84.3474 108.715 84.9758C107.102 85.6042 105.597 86.354 104.291 87.1801C102.985 88.0062 100.865 90.2952 100.074 91.1869C99.2833 92.0787 98.7989 92.9583 98.6499 93.7732Z" fill="white"/>
<path d="M105.777 143.004L130.908 151.914C129.567 155.155 126.987 157.771 123.703 159.22C120.419 160.668 116.684 160.837 113.274 159.691C111.621 159.107 110.109 158.203 108.828 157.036C107.548 155.869 106.526 154.463 105.824 152.902C105.123 151.341 104.757 149.659 104.749 147.958C104.741 146.256 105.09 144.571 105.777 143.004Z" fill="white"/>
<path d="M120.445 160.172C120.032 156.428 118.212 152.963 115.333 150.439C112.454 147.916 108.718 146.51 104.839 146.491C104.496 149.287 105.139 152.113 106.663 154.508C108.186 156.904 110.501 158.728 113.229 159.684C115.542 160.488 118.039 160.657 120.445 160.172Z" fill="white"/>
<path d="M158.088 95.0187L139.195 89.1254C139.499 88.3622 140.04 87.6747 140.784 87.1056C141.529 86.5365 142.461 86.0977 143.523 85.8163C144.586 85.535 145.756 85.4172 146.962 85.47C148.167 85.5228 149.383 85.7452 150.533 86.1234C152.89 86.9066 156.071 88.4727 157.249 90.082C158.428 91.6914 158.728 93.4569 158.088 95.0187Z" fill="white"/>
<path d="M153.133 113.572C152.993 114.517 152.577 115.4 151.939 116.11C151.3 116.821 150.467 117.328 149.542 117.569C148.618 117.809 147.643 117.773 146.739 117.464C145.835 117.155 145.042 116.587 144.459 115.83C143.875 115.074 143.527 114.162 143.457 113.21C143.388 112.257 143.6 111.305 144.067 110.471C144.535 109.638 145.237 108.961 146.086 108.524C146.936 108.087 147.895 107.909 148.845 108.013C150.146 108.191 151.325 108.874 152.128 109.914C152.93 110.954 153.291 112.268 153.133 113.572Z" fill="white"/>
<path d="M139.302 106.211L136.215 111.15L139.302 132.139H157.204L165.23 125.966L168.316 104.977C165.847 103.989 147.944 105.388 139.302 106.211Z" stroke="white" stroke-opacity="0.6" stroke-width="1.62277" stroke-linejoin="round"/>
<path d="M126.86 106.531L130.659 111.409L124.485 132.139H102.356L92.4789 126.042L88.6799 105.312C91.7191 104.336 116.223 105.719 126.86 106.531Z" stroke="white" stroke-opacity="0.6" stroke-width="1.62277" stroke-linejoin="round"/>
<path d="M144.86 134.615L133.73 141.259L130.908 116.336C131.466 114.633 132.18 113.475 133.451 113.356H133.974C134.095 113.39 134.212 113.445 134.322 113.522C134.496 113.735 134.688 113.971 134.862 114.231C136.16 116.097 137.327 118.123 138.346 120.285C139.425 122.46 140.558 125.014 141.672 127.379L143.536 131.635C143.919 132.747 144.355 133.669 144.86 134.615Z" fill="white"/>
<path d="M63.3706 35.1962C62.214 36.0778 61.1281 37.0531 60.1245 38.1141L59.6401 38.6395C56.6582 41.9206 54.695 45.998 53.9888 50.3749C53.7513 51.723 53.657 53.092 53.7085 54.4589L53.7397 55.0448C53.8232 57.4184 54.0371 59.7855 54.3804 62.1356V62.1366C55.3912 69.8378 57.3696 79.5098 59.0913 87.2411C59.9529 91.1099 60.7522 94.4988 61.3354 96.9208C61.6254 98.1247 61.862 99.0901 62.0269 99.7567L45.0483 99.2294C45.04 99.179 45.0312 99.1259 45.022 99.0702C44.9347 98.5429 44.8089 97.7765 44.6548 96.8231C44.3465 94.9163 43.925 92.2592 43.4722 89.2596C42.5657 83.2553 41.5363 75.8963 41.0356 70.4286L41.0347 70.4227C40.8771 68.8276 40.7792 67.3986 40.729 66.2469L40.6948 65.1913V63.3544C40.6948 59.4682 40.9088 55.8651 42.1274 52.4384C43.3375 49.0357 45.5588 45.7536 49.6646 42.5594C53.8364 39.4061 58.4616 36.9255 63.3706 35.1962Z" stroke="#FF7829" stroke-width="1.62277"/>
<path d="M70.9883 133.138C73.0565 126.56 73.547 119.589 72.4202 112.786C71.2935 105.984 68.5811 99.5431 64.5025 93.9841C62.5086 91.3802 59.8594 89.3522 56.8253 88.1071C54.9596 87.3689 52.9288 87.1493 50.9483 87.4717L44.3565 88.5571C39.8826 89.3249 35.9911 93.0575 33.7673 99.1463C31.7005 105.712 31.2059 112.671 32.3233 119.463C33.4407 126.255 36.139 132.69 40.2003 138.247C42.206 140.85 44.8634 142.877 47.9039 144.124C49.7689 144.866 51.8033 145.077 53.7809 144.733L60.2933 143.674C64.8202 142.906 68.7117 139.2 70.9883 133.138Z" fill="white"/>
<path d="M47.9033 144.124C44.8628 142.877 42.2054 140.85 40.1997 138.247C36.1211 132.688 33.4086 126.247 32.2819 119.444C31.1551 112.642 31.6456 105.671 33.7138 99.0933C36.9435 90.516 43.4294 86.6245 50.2594 89.1924C53.2934 90.4375 55.9426 92.4656 57.9365 95.0694C62.0138 100.629 64.7274 107.069 65.8587 113.87C66.9899 120.671 66.507 127.643 64.4489 134.223C61.2192 142.8 54.7333 146.692 47.9033 144.124Z" fill="#FF7829"/>
<path d="M63.0994 133.72C65.1194 127.369 65.6063 120.63 64.5204 114.054C63.4344 107.479 60.8065 101.254 56.8518 95.8899C52.9602 91.1777 48.5922 89.2187 44.6478 89.8806L41.365 90.41C37.4206 91.0718 33.8997 94.328 31.7554 100.046C29.7608 106.393 29.2895 113.121 30.3795 119.684C31.4695 126.247 34.0903 132.462 38.0295 137.823C41.8946 142.535 46.289 144.468 50.2335 143.806L53.5162 143.277C57.4607 142.694 60.9551 139.438 63.0994 133.72Z" fill="#F0F0F0"/>
<path d="M53.5691 96.4989C57.5083 101.861 60.1291 108.075 61.2192 114.638C62.3092 121.201 61.8378 127.929 59.8432 134.276C55.5546 145.712 45.7861 147.327 38.0295 137.903C34.0903 132.541 31.4695 126.327 30.3795 119.764C29.2895 113.201 29.7608 106.473 31.7554 100.126C36.044 88.6894 45.7861 87.0746 53.5691 96.4989Z" fill="white"/>
<path d="M37.2837 92.1472C40.8389 91.5601 44.9476 93.288 48.7114 97.8356C52.5669 103.095 55.1308 109.187 56.1948 115.621C57.2582 122.051 56.7929 128.641 54.8384 134.858C52.7536 140.39 49.431 143.348 45.8813 143.935C42.331 144.522 38.2261 142.792 34.4595 138.223C30.6078 132.972 28.0448 126.888 26.9771 120.464C25.9091 114.038 26.3661 107.451 28.313 101.235C30.3976 95.692 33.7277 92.7346 37.2837 92.1472Z" stroke="white" stroke-width="1.62277"/>
</svg>
